<?xml version="1.0" encoding="UTF-8" standalone="no"?>
<svg
   xmlns:osb="http://www.openswatchbook.org/uri/2009/osb"
   xmlns:dc="http://purl.org/dc/elements/1.1/"
   xmlns:cc="http://creativecommons.org/ns#"
   xmlns:rdf="http://www.w3.org/1999/02/22-rdf-syntax-ns#"
   xmlns:svg="http://www.w3.org/2000/svg"
   xmlns="http://www.w3.org/2000/svg"
   xmlns:sodipodi="http://sodipodi.sourceforge.net/DTD/sodipodi-0.dtd"
   xmlns:inkscape="http://www.inkscape.org/namespaces/inkscape"
   width="32"
   height="32"
   version="1.1"
   id="svg8"
   sodipodi:docname="title.svg"
   inkscape:version="1.0.2 (e86c870879, 2021-01-15, custom)"
   inkscape:export-filename="C:\Users\klaus\Desktop\Clashic\clashic16.png"
   inkscape:export-xdpi="48"
   inkscape:export-ydpi="48">
  <metadata
     id="metadata14">
    <rdf:RDF>
      <cc:Work
         rdf:about="">
        <dc:format>image/svg+xml</dc:format>
        <dc:type
           rdf:resource="http://purl.org/dc/dcmitype/StillImage" />
        <dc:title></dc:title>
      </cc:Work>
    </rdf:RDF>
  </metadata>
  <defs
     id="defs12">
    <linearGradient
       id="linearGradient1125"
       osb:paint="solid">
      <stop
         style="stop-color:#000000;stop-opacity:1;"
         offset="0"
         id="stop1123" />
    </linearGradient>
    <marker
       style="overflow:visible"
       id="Arrow1Lstart"
       refX="0.0"
       refY="0.0"
       orient="auto"
       inkscape:stockid="Arrow1Lstart"
       inkscape:isstock="true">
      <path
         transform="scale(0.8) translate(12.5,0)"
         style="fill-rule:evenodd;stroke:none;stroke-width:1pt;stroke-opacity:1;fill:#ffffff;fill-opacity:1"
         d="M 0.0,0.0 L 5.0,-5.0 L -12.5,0.0 L 5.0,5.0 L 0.0,0.0 z "
         id="path841" />
    </marker>
  </defs>
  <sodipodi:namedview
     pagecolor="#ffffff"
     bordercolor="#666666"
     borderopacity="1"
     objecttolerance="10"
     gridtolerance="10"
     guidetolerance="10"
     inkscape:pageopacity="0"
     inkscape:pageshadow="2"
     inkscape:window-width="960"
     inkscape:window-height="1001"
     id="namedview10"
     showgrid="false"
     inkscape:zoom="22.63"
     inkscape:cx="9.224573"
     inkscape:cy="16.367179"
     inkscape:window-x="-9"
     inkscape:window-y="-9"
     inkscape:window-maximized="0"
     inkscape:current-layer="svg8"
     inkscape:document-rotation="0">
    <inkscape:grid
       type="xygrid"
       id="grid20" />
  </sodipodi:namedview>
  <path
     id="path1212"
     style="opacity:1;fill:#f7931a;fill-opacity:1;stroke-width:0;stroke-miterlimit:4;stroke-dasharray:none;paint-order:markers stroke fill"
     d="M 16 0 A 16 16 0 0 0 0 16 A 16 16 0 0 0 16 32 A 16 16 0 0 0 30.310547 23.15625 L 27.626953 21.814453 A 13 13 0 0 1 16 29 A 13 13 0 0 1 3 16 A 13 13 0 0 1 15.892578 3 A 13 13 0 0 1 16 3 A 13 13 0 0 1 27.626953 10.185547 L 30.310547 8.84375 A 16 16 0 0 0 16 0 z " />
  <circle
     style="fill:none;fill-opacity:1;stroke-width:0;stroke-miterlimit:4;stroke-dasharray:none;paint-order:markers stroke fill;opacity:1"
     id="path133"
     cx="16"
     cy="16"
     inkscape:export-xdpi="768"
     inkscape:export-ydpi="768"
     r="16" />
  <g
     fill="none"
     fill-rule="evenodd"
     id="g6"
     transform="rotate(-28,22.343529,-86.847703)"
     style="stroke-width:0;stroke-miterlimit:4;stroke-dasharray:none;paint-order:markers stroke fill;opacity:1">
    <path
       fill="#ffffff"
       fill-rule="nonzero"
       d="m -23.604233,-1.4753453 c 0.314,-2.096 -1.283,-3.223 -3.465,-3.975 l 0.708,-2.84 -1.728,-0.4300001 -0.69,2.7650001 c -0.454,-0.114 -0.92,-0.22 -1.385,-0.326 l 0.695,-2.7830001 -1.728,-0.431 -0.708,2.8390001 c -0.376,-0.086 -0.746,-0.17 -1.104,-0.26 l 0.002,-0.009 -2.384,-0.595 -0.46,1.846 c 0,0 1.283,0.294 1.256,0.312 0.7,0.175 0.826,0.638 0.805,1.006 l -0.806,3.235 c 0.048,0.012 0.11,0.03 0.18,0.057 l -0.183,-0.045 -1.13,4.5320002 c -0.086,0.212 -0.303,0.531 -0.793,0.41 0.018,0.025 -1.256,-0.313 -1.256,-0.313 l -0.858,1.978 2.25,0.561 c 0.418,0.105 0.828,0.215 1.231,0.318 l -0.715,2.872 1.727,0.43 0.708,-2.84 c 0.472,0.127 0.93,0.245 1.378,0.357 l -0.706,2.8280001 1.728,0.43 0.715,-2.8660001 c 2.948,0.558 5.164,0.333 6.097,-2.333 0.752,-2.146 -0.037,-3.385 -1.588,-4.192 1.13,-0.26000004 1.98,-1.00300024 2.207,-2.5380002 z m -3.95,5.5380002 c -0.533,2.147 -4.148,0.986 -5.32,0.695 l 0.95,-3.80500004 c 1.172,0.29300004 4.929,0.87200004 4.37,3.11000004 z m 0.535,-5.5690002 c -0.487,1.95300016 -3.495,0.95999996 -4.47,0.71699996 l 0.86,-3.44999996 c 0.975,0.243 4.118,0.696 3.61,2.733 z"
       id="path4"
       style="fill:#f7931a;fill-opacity:1;stroke-width:0;stroke-miterlimit:4;stroke-dasharray:none;paint-order:markers stroke fill" />
  </g>
  <text
     xml:space="preserve"
     style="font-style:italic;font-variant:normal;font-weight:bold;font-stretch:normal;font-size:9.6px;line-height:1.25;font-family:Ubuntu;-inkscape-font-specification:'Ubuntu Bold Italic';fill:#000000;fill-opacity:1;stroke-width:0;stroke-miterlimit:4;stroke-dasharray:none;paint-order:markers stroke fill;opacity:1;"
     x="-0.95380002"
     y="31.638599"
     id="text15"><tspan
       sodipodi:role="line"
       id="tspan13"
       x="-0.95380002"
       y="31.638599"
       style="font-size:9.6px;stroke-width:0;stroke-miterlimit:4;stroke-dasharray:none;paint-order:markers stroke fill;">Clashic</tspan></text>
</svg>
